<mxfile host="app.diagrams.net" modified="2023-10-23T12:24:49.019Z" agent="Mozilla/5.0 (Windows NT 10.0; Win64; x64) AppleWebKit/537.36 (KHTML, like Gecko) Chrome/117.0.0.0 Safari/537.36 OPR/103.0.0.0" etag="SVDMWwaVuIU3upx8q4UH" version="22.0.6" type="github">
  <diagram name="Page-1" id="qO9KVUesePhF7aX9RPVG">
    <mxGraphModel dx="1982" dy="808" grid="1" gridSize="10" guides="1" tooltips="1" connect="1" arrows="1" fold="1" page="1" pageScale="1" pageWidth="850" pageHeight="1100" math="0" shadow="0">
      <root>
        <mxCell id="0" />
        <mxCell id="1" parent="0" />
        <mxCell id="PPcFJ1XKB4rsNA9PKD_G-1" value="" style="ellipse;html=1;shape=startState;fillColor=#000000;strokeColor=#ff0000;" vertex="1" parent="1">
          <mxGeometry x="395" y="30" width="30" height="30" as="geometry" />
        </mxCell>
        <mxCell id="PPcFJ1XKB4rsNA9PKD_G-2" value="" style="edgeStyle=orthogonalEdgeStyle;html=1;verticalAlign=bottom;endArrow=open;endSize=8;strokeColor=#ff0000;rounded=0;" edge="1" source="PPcFJ1XKB4rsNA9PKD_G-1" parent="1">
          <mxGeometry relative="1" as="geometry">
            <mxPoint x="410" y="160" as="targetPoint" />
            <Array as="points">
              <mxPoint x="410" y="90" />
              <mxPoint x="411" y="120" />
            </Array>
          </mxGeometry>
        </mxCell>
        <mxCell id="PPcFJ1XKB4rsNA9PKD_G-3" value="Data Loading" style="rounded=1;whiteSpace=wrap;html=1;arcSize=40;fontColor=#000000;fillColor=#ffffc0;strokeColor=#ff0000;" vertex="1" parent="1">
          <mxGeometry x="350" y="160" width="120" height="40" as="geometry" />
        </mxCell>
        <mxCell id="PPcFJ1XKB4rsNA9PKD_G-4" value="" style="edgeStyle=orthogonalEdgeStyle;html=1;verticalAlign=bottom;endArrow=open;endSize=8;strokeColor=#ff0000;rounded=0;" edge="1" source="PPcFJ1XKB4rsNA9PKD_G-3" parent="1">
          <mxGeometry relative="1" as="geometry">
            <mxPoint x="410" y="260" as="targetPoint" />
          </mxGeometry>
        </mxCell>
        <mxCell id="PPcFJ1XKB4rsNA9PKD_G-5" value="EDA" style="rounded=1;whiteSpace=wrap;html=1;arcSize=40;fontColor=#000000;fillColor=#ffffc0;strokeColor=#ff0000;" vertex="1" parent="1">
          <mxGeometry x="350" y="260" width="120" height="40" as="geometry" />
        </mxCell>
        <mxCell id="PPcFJ1XKB4rsNA9PKD_G-6" value="" style="edgeStyle=orthogonalEdgeStyle;html=1;verticalAlign=bottom;endArrow=open;endSize=8;strokeColor=#ff0000;rounded=0;" edge="1" source="PPcFJ1XKB4rsNA9PKD_G-5" parent="1">
          <mxGeometry relative="1" as="geometry">
            <mxPoint x="410" y="360" as="targetPoint" />
          </mxGeometry>
        </mxCell>
        <mxCell id="PPcFJ1XKB4rsNA9PKD_G-7" value="Splitting" style="rounded=1;whiteSpace=wrap;html=1;arcSize=40;fontColor=#000000;fillColor=#ffffc0;strokeColor=#ff0000;" vertex="1" parent="1">
          <mxGeometry x="350" y="360" width="120" height="40" as="geometry" />
        </mxCell>
        <mxCell id="PPcFJ1XKB4rsNA9PKD_G-8" value="" style="edgeStyle=orthogonalEdgeStyle;html=1;verticalAlign=bottom;endArrow=open;endSize=8;strokeColor=#ff0000;rounded=0;" edge="1" source="PPcFJ1XKB4rsNA9PKD_G-7" parent="1">
          <mxGeometry relative="1" as="geometry">
            <mxPoint x="410" y="460" as="targetPoint" />
          </mxGeometry>
        </mxCell>
        <mxCell id="PPcFJ1XKB4rsNA9PKD_G-11" value="" style="shape=line;html=1;strokeWidth=6;strokeColor=#ff0000;" vertex="1" parent="1">
          <mxGeometry x="210" y="460" width="400" height="10" as="geometry" />
        </mxCell>
        <mxCell id="PPcFJ1XKB4rsNA9PKD_G-12" value="" style="edgeStyle=orthogonalEdgeStyle;html=1;verticalAlign=bottom;endArrow=open;endSize=8;strokeColor=#ff0000;rounded=0;" edge="1" source="PPcFJ1XKB4rsNA9PKD_G-11" parent="1">
          <mxGeometry relative="1" as="geometry">
            <mxPoint x="300" y="540" as="targetPoint" />
            <Array as="points">
              <mxPoint x="300" y="540" />
            </Array>
          </mxGeometry>
        </mxCell>
        <mxCell id="PPcFJ1XKB4rsNA9PKD_G-13" value="" style="edgeStyle=orthogonalEdgeStyle;html=1;verticalAlign=bottom;endArrow=open;endSize=8;strokeColor=#ff0000;rounded=0;" edge="1" parent="1">
          <mxGeometry relative="1" as="geometry">
            <mxPoint x="500" y="540" as="targetPoint" />
            <mxPoint x="500" y="470" as="sourcePoint" />
          </mxGeometry>
        </mxCell>
        <mxCell id="PPcFJ1XKB4rsNA9PKD_G-14" value="Model Training" style="rounded=1;whiteSpace=wrap;html=1;arcSize=40;fontColor=#000000;fillColor=#ffffc0;strokeColor=#ff0000;" vertex="1" parent="1">
          <mxGeometry x="240" y="540" width="120" height="40" as="geometry" />
        </mxCell>
        <mxCell id="PPcFJ1XKB4rsNA9PKD_G-15" value="" style="edgeStyle=orthogonalEdgeStyle;html=1;verticalAlign=bottom;endArrow=open;endSize=8;strokeColor=#ff0000;rounded=0;" edge="1" source="PPcFJ1XKB4rsNA9PKD_G-14" parent="1">
          <mxGeometry relative="1" as="geometry">
            <mxPoint x="300" y="640" as="targetPoint" />
          </mxGeometry>
        </mxCell>
        <mxCell id="PPcFJ1XKB4rsNA9PKD_G-16" value="Model Evaluation" style="rounded=1;whiteSpace=wrap;html=1;arcSize=40;fontColor=#000000;fillColor=#ffffc0;strokeColor=#ff0000;" vertex="1" parent="1">
          <mxGeometry x="440" y="540" width="120" height="40" as="geometry" />
        </mxCell>
        <mxCell id="PPcFJ1XKB4rsNA9PKD_G-17" value="" style="edgeStyle=orthogonalEdgeStyle;html=1;verticalAlign=bottom;endArrow=open;endSize=8;strokeColor=#ff0000;rounded=0;" edge="1" source="PPcFJ1XKB4rsNA9PKD_G-16" parent="1">
          <mxGeometry relative="1" as="geometry">
            <mxPoint x="500" y="640" as="targetPoint" />
          </mxGeometry>
        </mxCell>
        <mxCell id="PPcFJ1XKB4rsNA9PKD_G-18" value="" style="shape=line;html=1;strokeWidth=6;strokeColor=#ff0000;" vertex="1" parent="1">
          <mxGeometry x="250" y="640" width="320" height="10" as="geometry" />
        </mxCell>
        <mxCell id="PPcFJ1XKB4rsNA9PKD_G-22" value="" style="edgeStyle=orthogonalEdgeStyle;html=1;verticalAlign=bottom;endArrow=open;endSize=8;strokeColor=#ff0000;rounded=0;entryX=0.5;entryY=0;entryDx=0;entryDy=0;" edge="1" parent="1">
          <mxGeometry relative="1" as="geometry">
            <mxPoint x="410" y="750" as="targetPoint" />
            <mxPoint x="409.23" y="650" as="sourcePoint" />
          </mxGeometry>
        </mxCell>
        <mxCell id="PPcFJ1XKB4rsNA9PKD_G-23" value="Desired performance" style="rhombus;whiteSpace=wrap;html=1;fontColor=#000000;fillColor=#ffffc0;strokeColor=#ff0000;" vertex="1" parent="1">
          <mxGeometry x="310" y="750" width="200" height="90" as="geometry" />
        </mxCell>
        <mxCell id="PPcFJ1XKB4rsNA9PKD_G-24" value="no" style="edgeStyle=orthogonalEdgeStyle;html=1;align=left;verticalAlign=bottom;endArrow=open;endSize=8;strokeColor=#ff0000;rounded=0;" edge="1" source="PPcFJ1XKB4rsNA9PKD_G-23" parent="1">
          <mxGeometry x="-1" relative="1" as="geometry">
            <mxPoint x="410" y="430" as="targetPoint" />
            <Array as="points">
              <mxPoint x="720" y="795" />
              <mxPoint x="720" y="430" />
              <mxPoint x="470" y="430" />
            </Array>
          </mxGeometry>
        </mxCell>
        <mxCell id="PPcFJ1XKB4rsNA9PKD_G-25" value="yes" style="edgeStyle=orthogonalEdgeStyle;html=1;align=left;verticalAlign=top;endArrow=open;endSize=8;strokeColor=#ff0000;rounded=0;" edge="1" source="PPcFJ1XKB4rsNA9PKD_G-23" parent="1">
          <mxGeometry x="-1" relative="1" as="geometry">
            <mxPoint x="410" y="910" as="targetPoint" />
          </mxGeometry>
        </mxCell>
        <mxCell id="PPcFJ1XKB4rsNA9PKD_G-27" value="Model Prediction" style="rounded=1;whiteSpace=wrap;html=1;arcSize=40;fontColor=#000000;fillColor=#ffffc0;strokeColor=#ff0000;" vertex="1" parent="1">
          <mxGeometry x="350" y="910" width="120" height="40" as="geometry" />
        </mxCell>
        <mxCell id="PPcFJ1XKB4rsNA9PKD_G-28" value="" style="edgeStyle=orthogonalEdgeStyle;html=1;verticalAlign=bottom;endArrow=open;endSize=8;strokeColor=#ff0000;rounded=0;" edge="1" source="PPcFJ1XKB4rsNA9PKD_G-33" parent="1">
          <mxGeometry relative="1" as="geometry">
            <mxPoint x="410" y="1010" as="targetPoint" />
          </mxGeometry>
        </mxCell>
        <mxCell id="PPcFJ1XKB4rsNA9PKD_G-34" value="" style="edgeStyle=orthogonalEdgeStyle;html=1;verticalAlign=bottom;endArrow=open;endSize=8;strokeColor=#ff0000;rounded=0;" edge="1" parent="1" source="PPcFJ1XKB4rsNA9PKD_G-27" target="PPcFJ1XKB4rsNA9PKD_G-33">
          <mxGeometry relative="1" as="geometry">
            <mxPoint x="410" y="1010" as="targetPoint" />
            <mxPoint x="410" y="950" as="sourcePoint" />
          </mxGeometry>
        </mxCell>
        <mxCell id="PPcFJ1XKB4rsNA9PKD_G-33" value="" style="ellipse;html=1;shape=endState;fillColor=#000000;strokeColor=#ff0000;" vertex="1" parent="1">
          <mxGeometry x="395" y="1010" width="30" height="30" as="geometry" />
        </mxCell>
      </root>
    </mxGraphModel>
  </diagram>
</mxfile>
